<svg width="42" height="42" viewBox="0 0 42 42" fill="#F8CE46" xmlns="http://www.w3.org/2000/svg">
<path d="M21 31.4103C21.4069 31.4103 21.7479 31.2727 22.0231 30.9975C22.2983 30.7222 22.4359 30.3812 22.4359 29.9743C22.4359 29.5675 22.2983 29.2265 22.0231 28.9513C21.7479 28.6761 21.4069 28.5385 21 28.5385C20.5931 28.5385 20.2521 28.6761 19.9769 28.9513C19.7017 29.2265 19.5641 29.5675 19.5641 29.9743C19.5641 30.3812 19.7017 30.7222 19.9769 30.9975C20.2521 31.2727 20.5931 31.4103 21 31.4103ZM19.8333 23.6923H22.1667V9.69232H19.8333V23.6923ZM21.0078 42C18.1039 42 15.3737 41.449 12.8172 40.3469C10.2608 39.2448 8.03703 37.7491 6.14594 35.8598C4.25489 33.9705 2.75781 31.7488 1.65468 29.1948C0.551561 26.6407 0 23.9117 0 21.0078C0 18.1039 0.551036 15.3737 1.65311 12.8172C2.75522 10.2608 4.25093 8.03703 6.14022 6.14594C8.02952 4.25489 10.2512 2.75781 12.8052 1.65469C15.3593 0.551563 18.0883 0 20.9922 0C23.8961 0 26.6263 0.551036 29.1828 1.65311C31.7392 2.75522 33.963 4.25092 35.8541 6.14022C37.7451 8.02952 39.2422 10.2512 40.3453 12.8052C41.4484 15.3593 42 18.0883 42 20.9922C42 23.8961 41.449 26.6263 40.3469 29.1828C39.2448 31.7392 37.7491 33.963 35.8598 35.8541C33.9705 37.7451 31.7488 39.2422 29.1948 40.3453C26.6407 41.4484 23.9117 42 21.0078 42ZM21 39.6667C26.2111 39.6667 30.625 37.8583 34.2417 34.2417C37.8583 30.625 39.6667 26.2111 39.6667 21C39.6667 15.7889 37.8583 11.375 34.2417 7.75833C30.625 4.14167 26.2111 2.33333 21 2.33333C15.7889 2.33333 11.375 4.14167 7.75833 7.75833C4.14167 11.375 2.33333 15.7889 2.33333 21C2.33333 26.2111 4.14167 30.625 7.75833 34.2417C11.375 37.8583 15.7889 39.6667 21 39.6667Z"/>
</svg>
